<svg
  width="100"
  height="30"
  viewBox="0 0 80 30"
  xmlns="http://www.w3.org/2000/svg"
>
  <path
    fill="var(--theme-text-primary)"
    d="M1 25V7.504h5.664l3.6 11.448h.144L13.96 7.504h5.688V25h-3.624v-6.912l.048-6.672h-.168L11.8 25H8.872L4.768 11.416h-.192l.072 6.72V25H1ZM28.47 25.216c-.976 0-1.856-.144-2.64-.432a5.828 5.828 0 0 1-2.04-1.32 5.745 5.745 0 0 1-1.32-2.088c-.304-.832-.456-1.768-.456-2.808 0-1.328.256-2.488.768-3.48a5.598 5.598 0 0 1 2.208-2.352c.96-.56 2.12-.84 3.48-.84.96 0 1.832.152 2.616.456a5.59 5.59 0 0 1 2.016 1.32 5.745 5.745 0 0 1 1.32 2.088c.32.816.48 1.752.48 2.808 0 1.312-.256 2.472-.768 3.48a5.632 5.632 0 0 1-2.208 2.328c-.944.56-2.096.84-3.456.84Zm-.024-2.856c.576 0 1.08-.136 1.512-.408.448-.288.784-.712 1.008-1.272.24-.56.36-1.264.36-2.112 0-.64-.064-1.192-.192-1.656-.128-.48-.32-.88-.576-1.2a2.251 2.251 0 0 0-.912-.696 2.809 2.809 0 0 0-1.176-.24 2.9 2.9 0 0 0-1.536.408c-.432.272-.768.688-1.008 1.248s-.36 1.272-.36 2.136c0 .64.064 1.2.192 1.68.144.464.344.856.6 1.176.256.304.56.536.912.696.352.16.744.24 1.176.24ZM36.91 25V12.136h3.383l.144 2.328h.144c.352-.864.896-1.504 1.632-1.92.736-.432 1.56-.648 2.472-.648.64 0 1.232.104 1.776.312.56.192 1.04.496 1.44.912.416.416.736.968.96 1.656.24.672.36 1.488.36 2.448V25h-3.528v-7.008c0-.72-.088-1.32-.264-1.8-.16-.48-.416-.832-.768-1.056-.352-.24-.816-.36-1.392-.36-.608 0-1.12.144-1.536.432a2.858 2.858 0 0 0-.96 1.128 3.432 3.432 0 0 0-.336 1.512V25H36.91ZM51.88 25V12.136h3.528V25H51.88Zm0-14.52V7.504h3.528v2.976H51.88ZM63.819 25.216c-.96 0-1.832-.152-2.616-.456a5.948 5.948 0 0 1-2.04-1.368 6.164 6.164 0 0 1-1.296-2.112c-.288-.816-.432-1.72-.432-2.712 0-1.36.264-2.536.792-3.528a5.59 5.59 0 0 1 2.256-2.304c.976-.56 2.128-.84 3.456-.84 1.104 0 2.08.208 2.928.624.864.416 1.552.992 2.064 1.728s.792 1.592.84 2.568h-3.456c-.064-.448-.216-.824-.456-1.128a1.988 1.988 0 0 0-.864-.672c-.336-.16-.72-.24-1.152-.24-.608 0-1.128.16-1.56.48-.432.304-.752.744-.96 1.32-.208.56-.312 1.224-.312 1.992 0 .848.112 1.552.336 2.112.24.544.568.96.984 1.248.432.272.928.408 1.488.408.512 0 .944-.088 1.296-.264.368-.176.656-.424.864-.744.224-.32.352-.68.384-1.08h3.432c-.048 1.008-.336 1.888-.864 2.64-.512.736-1.208 1.312-2.088 1.728-.88.4-1.888.6-3.024.6ZM76.089 25.216a5.345 5.345 0 0 1-2.112-.408 4.376 4.376 0 0 1-1.632-1.248c-.448-.56-.792-1.256-1.032-2.088-.24-.832-.36-1.8-.36-2.904 0-1.488.208-2.72.624-3.696.432-.992 1.032-1.736 1.8-2.232.784-.496 1.688-.744 2.712-.744.672 0 1.272.104 1.8.312a4.1 4.1 0 0 1 1.392.864c.4.368.696.8.888 1.296h.192l.144-2.232h3.384V25H80.36v-2.256h-.192c-.288.752-.792 1.352-1.512 1.8-.72.448-1.576.672-2.568.672Zm1.344-2.856c.656 0 1.192-.152 1.608-.456a2.75 2.75 0 0 0 .96-1.176 3.994 3.994 0 0 0 .312-1.56v-1.224c0-.56-.104-1.08-.312-1.56a2.75 2.75 0 0 0-.96-1.176c-.416-.304-.952-.456-1.608-.456-.576 0-1.08.136-1.512.408-.432.272-.768.688-1.008 1.248s-.36 1.28-.36 2.16c0 .848.12 1.56.36 2.136.24.56.576.976 1.008 1.248.432.272.936.408 1.512.408Z"
    data-follow-fill="#262626"
  ></path>
</svg>
