<svg width="200" height="200" viewBox="0 0 200 200" fill="none" xmlns="http://www.w3.org/2000/svg">
<path d="M100 0C155.228 0 200 44.7715 200 100C200 155.228 155.228 200 100 200C44.7715 200 0 155.228 0 100C0 44.7715 44.7715 0 100 0ZM100 25C58.5786 25 25 58.5786 25 100C25 141.421 58.5786 175 100 175C141.421 175 175 141.421 175 100C175 58.5786 141.421 25 100 25Z" fill="url(#paint0_linear_0_1)"/>
<path d="M109.997 50.999C132.821 55.6306 150 75.8093 150 100C150 111.256 146.279 121.643 140.002 130C117.179 125.368 100 105.19 100 81C100 69.7435 103.72 59.3558 109.997 50.999Z" fill="white"/>
<defs>
<linearGradient id="paint0_linear_0_1" x1="100" y1="0" x2="100" y2="200" gradientUnits="userSpaceOnUse">
<stop stop-color="#FF6F71"/>
<stop offset="0.500064" stop-color="#FF009D"/>
<stop offset="1" stop-color="#D000FF"/>
</linearGradient>
</defs>
</svg>
